name C:\Users\u0101727\Documents\MyRepositories\upper-imu-dc\Results\main_mocap_tracking\Case_0\kinematics.mot
datacolumns 15
datarows 15
range 1.00000000 1.14000000
endheader 
time	ground_thorax_rot_x	ground_thorax_rot_y	ground_thorax_rot_z	clav_prot	clav_elev	scapula_abduction	scapula_elevation	scapula_upward_rot	scapula_winging	plane_elv	shoulder_elv	axial_rot	elbow_flexion	pro_sup	
          1.00000000	          1.83395506	         -5.90011234	         -9.74330616	        -21.72635914	         -6.32037561	         -7.61085556	         -6.74779065	         17.88144016	          4.90770920	         35.58167335	         27.35500406	        -12.23652251	         -0.21316196	         34.34633514	
          1.01000000	          1.83215303	         -5.91429288	         -9.76382665	        -21.71903910	         -6.32133625	         -7.59791123	         -6.74812270	         17.88155058	          4.90750238	         36.92676948	         28.03992775	        -14.13819935	         -0.16964193	         34.34118096	
          1.02000000	          1.82140501	         -5.94092828	         -9.79194790	        -21.68856156	         -6.32936040	         -7.54411817	         -6.75220514	         17.88047978	          4.90870329	         38.25024706	         28.71937842	        -16.03269110	         -0.09744202	         34.33314876	
          1.03000000	          1.80357002	         -5.97666141	         -9.82579743	        -21.62803046	         -6.33581194	         -7.43854459	         -6.75338906	         17.87960575	          4.90674091	         39.54206267	         29.39173421	        -17.89086628	         -0.01827112	         34.32424722	
          1.04000000	          1.77972137	         -6.01902659	         -9.86416303	        -21.54109525	         -6.34589948	         -7.28680033	         -6.75569449	         17.87821980	          4.90410757	         40.79751924	         30.05776373	        -19.68302821	          0.05389259	         34.31618218	
          1.05000000	          1.75097949	         -6.06603854	         -9.90586519	        -21.42621051	         -6.35273143	         -7.08600997	         -6.75442761	         17.87898428	          4.89696595	         42.01342155	         30.71359966	        -21.38023332	          0.11413035	         34.30942226	
          1.06000000	          1.71719290	         -6.11780021	         -9.95047455	        -21.28223179	         -6.36534370	         -6.83442621	         -6.75557080	         17.87833074	          4.88950723	         43.17146755	         31.36278595	        -22.96164618	          0.15976730	         34.30417750	
          1.07000000	          1.67878299	         -6.17361652	         -9.99740464	        -21.11321931	         -6.38052334	         -6.53903481	         -6.75719450	         17.87737260	          4.88013776	         44.28502229	         32.00398196	        -24.41656120	          0.18520596	         34.30110931	
          1.08000000	          1.63652426	         -6.23227172	        -10.04609399	        -20.92430895	         -6.39033114	         -6.20880554	         -6.75416637	         17.87864158	          4.86509093	         45.37064381	         32.63413040	        -25.73796883	          0.19164442	         34.30108140	
          1.09000000	          1.59043925	         -6.29340285	        -10.09659174	        -20.72337131	         -6.40973509	         -5.85728987	         -6.75715640	         17.87711535	          4.85229762	         46.42144398	         33.25928837	        -26.92459551	          0.17831625	         34.30386849	
          1.10000000	          1.54204486	         -6.35484312	        -10.14832885	        -20.51331605	         -6.41992428	         -5.48985188	         -6.75340932	         17.87866436	          4.83265721	         47.44876187	         33.87139305	        -27.98420084	          0.16164942	         34.30670794	
          1.11000000	          1.49124201	         -6.41650351	        -10.20160110	        -20.30029257	         -6.43969616	         -5.11685682	         -6.75619107	         17.87738451	          4.81595808	         48.43688935	         34.47740521	        -28.92156365	          0.14093500	         34.30984810	
          1.12000000	          1.43937188	         -6.47674250	        -10.25603738	        -20.08404816	         -6.45051800	         -4.73832316	         -6.75269073	         17.87880311	          4.79309397	         49.39637654	         35.07173665	        -29.74728026	          0.12538924	         34.31200017	
          1.13000000	          1.38637223	         -6.53549001	        -10.31198762	        -19.86993322	         -6.47108797	         -4.36299011	         -6.75616476	         17.87752981	          4.77376492	         50.31504633	         35.66213203	        -30.46654691	          0.10692364	         34.31441292	
          1.14000000	          1.33320867	         -6.59170149	        -10.36926602	        -19.65563691	         -6.48837168	         -3.98736504	         -6.75740745	         17.87713288	          4.75145003	         51.19616365	         36.24612994	        -31.09013836	          0.08955892	         34.31629264	
